<svg xmlns="http://www.w3.org/2000/svg" viewBox="0 0 512 512">
  <defs>
    <!-- Background Gradient -->
    <linearGradient id="bgGrad" x1="0%" y1="0%" x2="0%" y2="100%">
      <stop offset="0%" stop-color="#0245a3" />
      <stop offset="40%" stop-color="#012b7a" />
      <stop offset="100%" stop-color="#001a52" />
    </linearGradient>

    <!-- Shadow for the 3D effect of the N -->
    <filter id="n-shadow" x="-30%" y="-30%" width="160%" height="160%">
      <feDropShadow dx="8" dy="12" stdDeviation="10" flood-color="#000" flood-opacity="0.4" />
    </filter>

    <!-- Glowing swoosh gradient -->
    <linearGradient id="swooshGrad" x1="0%" y1="100%" x2="100%" y2="0%">
      <stop offset="0%" stop-color="#00d2ff" stop-opacity="0" />
      <stop offset="50%" stop-color="#00d2ff" stop-opacity="0.8" />
      <stop offset="100%" stop-color="#00d2ff" stop-opacity="0" />
    </linearGradient>
  </defs>

  <!-- Background rounded rectangle -->
  <rect width="512" height="512" rx="115" fill="url(#bgGrad)" />

  <g filter="url(#n-shadow)">
    <!-- The white part of the N (left leg and inner curve) -->
    <path d="M 140,370 L 225,185 C 235,160 260,160 270,195 L 300,285" fill="none" stroke="#ffffff" stroke-width="48" stroke-linecap="round" stroke-linejoin="round" />

    <!-- The cyan part of the N (checkmark shape on the right) -->
    <path d="M 215,250 C 240,350 280,350 310,310 L 410,130" fill="none" stroke="#00b4d8" stroke-width="48" stroke-linecap="round" stroke-linejoin="round" />
    
    <!-- Add some highlights to cyan part for 3D effect -->
    <path d="M 215,250 C 240,350 280,350 310,310 L 410,130" fill="none" stroke="#48cae4" stroke-width="20" stroke-linecap="round" stroke-linejoin="round" opacity="0.4" />
  </g>

  <!-- Glowing thin background line near the text -->
  <path d="M 100,490 Q 256,430 450,450" fill="none" stroke="url(#swooshGrad)" stroke-width="3" />
  <path d="M 150,510 Q 256,450 350,470" fill="none" stroke="url(#swooshGrad)" stroke-width="1.5" />

  <!-- Add subtle shadow to text -->
  <text x="258" y="457" font-family="system-ui, -apple-system, sans-serif" font-weight="600" font-size="48" fill="#000000" fill-opacity="0.3" text-anchor="middle" letter-spacing="-0.5" style="mix-blend-mode: multiply;">NutriVida</text>
  <text x="256" y="455" font-family="system-ui, -apple-system, sans-serif" font-weight="600" font-size="48" fill="#ffffff" text-anchor="middle" letter-spacing="-0.5">NutriVida</text>

</svg>
